<?xml version="1.0" encoding="utf-8"?>
<!-- Generator: Adobe Illustrator 23.0.1, SVG Export Plug-In . SVG Version: 6.00 Build 0)  -->
<svg version="1.1" id="Camada_1" xmlns="http://www.w3.org/2000/svg" xmlns:xlink="http://www.w3.org/1999/xlink" x="0px" y="0px"
	 viewBox="0 0 148.5 120.1" style="enable-background:new 0 0 148.5 120.1;" xml:space="preserve">
<style type="text/css">
	.st0{display:none;fill:#03151D;}
	.st1{display:none;fill:#EFEFEF;}
	.st2{font-family:'Sen-Bold';}
	.st3{font-size:47.1857px;}
	.st4{letter-spacing:4;}
	.st5{display:none;}
	.st6{display:inline;}
	.st7{fill:none;stroke:#EFEFEF;stroke-width:10;stroke-miterlimit:10;}
	.st8{display:inline;fill:none;stroke:#EFEFEF;stroke-width:10;stroke-miterlimit:10;}
	.st9{display:inline;fill:#EFEFEF;}
	.st10{fill:#EFEFEF;}
	.st11{fill:#A6A6A6;}
</style>
<rect x="-193.8" y="-207.9" class="st0" width="537.7" height="537.2"/>
<text transform="matrix(1 0 0 1 -1.6074 73.6799)" class="st1 st2 st3 st4">Cotas</text>
<g class="st5">
	<g class="st6">
		<g>
			<g>
				<path class="st7" d="M-114.6,0.8L-87-26.9l27.5,27.7C-74.7,16-99.4,16-114.6,0.8z"/>
			</g>
			<line class="st7" x1="-87" y1="-26.9" x2="-37.8" y2="-76.1"/>
		</g>
		<line class="st7" x1="-59.2" y1="0.9" x2="-116" y2="-55.9"/>
	</g>
	<circle class="st8" cx="-87" cy="-26.9" r="68.5"/>
</g>
<path class="st1" d="M240-68.9l3.2-3.2l-3.7-3.7l-3.2,3.2c-6.8-5.9-15.6-9.5-25.2-9.5c-21.2,0-38.4,17.2-38.4,38.4
	S189.9-5.3,211-5.3s38.4-17.2,38.4-38.4C249.4-53.3,245.8-62.1,240-68.9z M211-10.5c-18.3,0-33.2-14.9-33.2-33.2
	s14.9-33.2,33.2-33.2c8.2,0,15.7,3,21.5,8L211-47.4l-16-16l-3.7,3.7l16,16l-14.5,14.5l1.8,1.8c4.5,4.5,10.4,6.7,16.3,6.7
	c5.9,0,11.8-2.2,16.3-6.7l1.8-1.8l-1.7-1.7l0.1-0.1l-12.7-12.7l21.5-21.5c5,5.8,8,13.3,8,21.5C244.2-25.4,229.3-10.5,211-10.5z
	 M221.6-29.4c-6.3,4.6-14.9,4.7-21.2,0L211-40L221.6-29.4z"/>
<g class="st5">
	<path class="st9" d="M-6.5,85.5c2.8,0,5.3,0.4,7.3,1.2c2.1,0.8,3.8,1.8,5.4,3.2v9.4c-1.1-0.8-2.2-1.6-3.4-2.3
		c-1.2-0.8-2.5-1.4-3.9-1.9c-1.5-0.5-3.2-0.7-5.1-0.7c-2.7,0-5.1,0.6-7.3,1.9c-2.2,1.3-3.9,3-5.2,5.2c-1.3,2.2-1.9,4.7-1.9,7.5
		c0,2.8,0.6,5.3,1.9,7.5c1.3,2.2,3,4,5.2,5.2c2.2,1.3,4.6,1.9,7.3,1.9c3,0,5.5-0.5,7.5-1.4c2-0.9,3.9-2,5.5-3.4v9.1
		c-1.5,1.4-3.4,2.5-5.7,3.3c-2.3,0.8-4.8,1.2-7.6,1.2c-3.2,0-6.3-0.6-9.1-1.7c-2.9-1.1-5.4-2.8-7.6-4.8c-2.2-2.1-3.9-4.5-5.2-7.4
		c-1.3-2.9-1.9-6-1.9-9.5c0-3.5,0.6-6.7,1.9-9.5c1.3-2.9,3-5.3,5.2-7.4c2.2-2.1,4.7-3.7,7.6-4.8S-9.7,85.5-6.5,85.5z"/>
	<path class="st9" d="M37.7,96.7c3.3,0,6.3,0.8,9.1,2.4c2.7,1.6,4.9,3.7,6.6,6.4c1.7,2.7,2.5,5.7,2.5,9.1c0,3.4-0.8,6.4-2.5,9.1
		c-1.7,2.7-3.9,4.8-6.6,6.4c-2.7,1.6-5.7,2.4-9.1,2.4c-3.3,0-6.3-0.8-9-2.4c-2.8-1.6-5-3.7-6.6-6.4c-1.7-2.7-2.5-5.7-2.5-9.1
		c0-3.4,0.8-6.4,2.5-9.1c1.7-2.7,3.9-4.9,6.6-6.4C31.5,97.5,34.5,96.7,37.7,96.7z M37.7,104.9c-1.6,0-3.1,0.4-4.5,1.1
		c-1.4,0.8-2.5,1.9-3.3,3.3c-0.8,1.4-1.2,3.2-1.2,5.2c0,2.1,0.4,3.8,1.2,5.2c0.8,1.4,1.9,2.5,3.3,3.3s2.9,1.1,4.5,1.1
		c1.6,0,3.1-0.4,4.5-1.1c1.4-0.7,2.5-1.8,3.4-3.3c0.8-1.4,1.3-3.2,1.3-5.2c0-2.1-0.4-3.8-1.3-5.2c-0.9-1.4-2-2.5-3.4-3.3
		C40.9,105.3,39.4,104.9,37.7,104.9z"/>
	<path class="st9" d="M81.8,87.7v9.9h9.4v7.1h-9.4v14.6c0,1.5,0.3,2.7,1,3.6c0.7,0.9,1.7,1.3,3.1,1.3c1.2,0,2.2-0.1,3.1-0.4
		c0.9-0.3,1.7-0.6,2.4-1.1v6.8c-0.9,0.9-1.9,1.6-3.2,2.1c-1.3,0.6-2.9,0.9-4.8,0.9c-3,0-5.5-1-7.4-2.9c-1.9-1.9-2.9-4.6-2.9-8v-16.8
		h-6.1v-4.4c2.1-0.8,4.1-2.2,5.9-4.3c1.8-2.1,3.3-4.9,4.3-8.3H81.8z"/>
	<path class="st9" d="M120.2,96.7c1.8,0,3.7,0.4,5.6,1.3c1.9,0.9,3.4,2,4.7,3.4v-3.8h8.5v33.9h-8.5v-5.7c-1,1.8-2.4,3.4-4.3,4.7
		c-1.9,1.3-4.1,2-6.6,2c-2.7,0-5.2-0.7-7.5-2.1c-2.3-1.4-4.2-3.4-5.5-6c-1.4-2.6-2.1-5.8-2.1-9.6c0-3.8,0.7-7,2.1-9.7
		c1.4-2.7,3.3-4.8,5.7-6.2C114.6,97.4,117.3,96.7,120.2,96.7z M121.9,105c-1.8,0-3.3,0.5-4.6,1.4c-1.3,0.9-2.3,2.1-3,3.6
		s-1.1,3.1-1.1,4.8c0,2.5,0.8,4.7,2.3,6.5c1.5,1.8,3.6,2.7,6.1,2.7c1.5,0,2.9-0.4,4.3-1.2s2.4-1.9,3.2-3.4c0.8-1.5,1.2-3.2,1.2-5.3
		v-4.8c-1.2-1.3-2.5-2.3-3.9-3.1C125.1,105.4,123.6,105,121.9,105z"/>
	<path class="st9" d="M167.2,96.7c2.1,0,4,0.3,5.8,0.9c1.8,0.6,3.2,1.3,4.2,2.1v7.5c-1.1-0.7-2.4-1.4-3.9-2.1c-1.5-0.7-3.1-1-4.8-1
		c-1.6,0-2.9,0.4-3.8,1.1c-0.9,0.7-1.4,1.6-1.4,2.5c0,0.7,0.3,1.4,0.8,2c0.5,0.6,1.6,1.1,3.1,1.6l3.8,1.3c5.1,1.5,7.7,4.5,7.7,8.9
		c0,2.1-0.6,4-1.8,5.6c-1.2,1.6-2.8,2.9-4.8,3.9c-2,0.9-4.2,1.4-6.6,1.4c-2.3,0-4.5-0.4-6.6-1.1c-2.1-0.7-3.8-1.5-4.9-2.3v-7.4
		c0.8,0.6,1.9,1.1,3.1,1.7c1.2,0.5,2.5,1,3.8,1.3c1.3,0.3,2.5,0.5,3.6,0.5c1.7,0,3-0.3,3.9-0.9c0.9-0.6,1.4-1.5,1.4-2.6
		c0-0.8-0.4-1.5-1.1-2c-0.8-0.5-1.9-1-3.4-1.5l-4.2-1.5c-2.6-0.8-4.4-2.1-5.4-3.6c-1-1.6-1.5-3.4-1.5-5.6s0.5-4,1.6-5.6
		c1.1-1.6,2.6-2.8,4.6-3.8C162.4,97.2,164.7,96.7,167.2,96.7z"/>
</g>
<g>
	<path class="st10" d="M74.2,6.9C44.9,6.9,21.1,30.7,21.1,60s23.9,53.2,53.2,53.2s53.2-23.9,53.2-53.2S103.6,6.9,74.2,6.9z
		 M74.2,106C48.9,106,28.3,85.4,28.3,60s20.6-45.9,45.9-45.9c11.4,0,21.8,4.2,29.8,11L74.2,54.9L55.8,36.5l-5.1,5.1L69.1,60l-20,20
		l2.6,2.6c6.2,6.2,14.4,9.3,22.5,9.3s16.3-3.1,22.5-9.3l2.5-2.5l-2.4-2.4l0.1-0.1L79.4,60l29.8-29.8c6.9,8,11,18.4,11,29.8
		C120.2,85.4,99.6,106,74.2,106z M88.8,79.9c-8.7,6.4-20.6,6.4-29.3,0l14.7-14.7L88.8,79.9z"/>
</g>
<g class="st5">
	<g class="st6">
		<g>
			<path class="st11" d="M40.3,84.9c0.8,0,1.4,0.1,2.1,0.3c0.6,0.2,1.2,0.4,1.6,0.7v2.7c-0.5-0.3-1-0.6-1.5-0.8
				c-0.5-0.2-1.1-0.4-1.8-0.4c-0.3,0-0.7,0.1-1,0.2S39,87.8,38.8,88c-0.2,0.2-0.3,0.5-0.3,0.8c0,0.4,0.2,0.8,0.6,1
				c0.4,0.2,0.8,0.4,1.4,0.7l1.6,0.7c0.9,0.4,1.6,0.9,2,1.4c0.4,0.6,0.6,1.2,0.6,1.9c0,0.8-0.2,1.5-0.7,2.1c-0.4,0.6-1,1.1-1.8,1.4
				s-1.6,0.5-2.5,0.5c-0.8,0-1.5-0.1-2.2-0.4c-0.7-0.3-1.3-0.6-1.8-1v-2.7c0.6,0.4,1.2,0.8,1.9,1.1c0.7,0.3,1.4,0.4,2.2,0.4
				c0.5,0,1-0.1,1.4-0.3c0.4-0.2,0.6-0.5,0.6-1c0-0.3-0.2-0.6-0.5-0.8c-0.3-0.2-0.7-0.4-1-0.5l-2-0.8c-1-0.4-1.7-0.9-2.1-1.5
				s-0.5-1.3-0.5-2.1c0-0.8,0.2-1.5,0.7-2.1c0.4-0.6,1-1.1,1.7-1.4C38.7,85,39.5,84.9,40.3,84.9z"/>
			<path class="st11" d="M59.7,88.3v5.9c0,0.9-0.2,1.6-0.6,2.3s-0.9,1.1-1.6,1.5s-1.4,0.5-2.3,0.5c-0.9,0-1.6-0.2-2.3-0.5
				c-0.7-0.3-1.2-0.8-1.6-1.5s-0.6-1.4-0.6-2.3v-5.9h2.5l0,5.4c0,0.8,0.2,1.3,0.5,1.7c0.4,0.4,0.8,0.6,1.4,0.6c0.6,0,1-0.2,1.4-0.6
				c0.4-0.4,0.5-0.9,0.5-1.7v-5.4H59.7z"/>
			<path class="st11" d="M70.4,88.1c0.5,0,1.1,0.1,1.6,0.4c0.5,0.2,1,0.6,1.4,1v-1.1h2.5v9.9h-2.5v-1.7c-0.3,0.5-0.7,1-1.2,1.4
				c-0.5,0.4-1.2,0.6-1.9,0.6c-0.8,0-1.5-0.2-2.2-0.6c-0.7-0.4-1.2-1-1.6-1.8c-0.4-0.8-0.6-1.7-0.6-2.8c0-1.1,0.2-2,0.6-2.8
				c0.4-0.8,1-1.4,1.7-1.8C68.8,88.3,69.6,88.1,70.4,88.1z M70.9,90.5c-0.5,0-1,0.1-1.3,0.4c-0.4,0.3-0.7,0.6-0.9,1
				c-0.2,0.4-0.3,0.9-0.3,1.4c0,0.7,0.2,1.4,0.7,1.9c0.4,0.5,1,0.8,1.8,0.8c0.4,0,0.9-0.1,1.2-0.4s0.7-0.6,0.9-1
				c0.2-0.4,0.4-0.9,0.4-1.5v-1.4c-0.4-0.4-0.7-0.7-1.1-0.9S71.4,90.5,70.9,90.5z"/>
			<path class="st11" d="M97.3,88.1c0.7,0,1.3,0.1,1.8,0.4s0.8,0.5,1.1,0.7v2.3c-0.3-0.2-0.7-0.5-1.1-0.6c-0.4-0.2-0.9-0.3-1.6-0.3
				c-0.5,0-1,0.1-1.4,0.4s-0.8,0.6-1,1c-0.2,0.4-0.4,0.9-0.4,1.4c0,0.8,0.3,1.5,0.8,2c0.5,0.5,1.2,0.8,2,0.8c0.6,0,1.1-0.1,1.6-0.2
				c0.4-0.2,0.8-0.4,1.1-0.6v2.3c-0.3,0.2-0.6,0.5-1.1,0.7c-0.5,0.2-1.1,0.3-1.8,0.3c-1,0-1.9-0.2-2.7-0.7c-0.8-0.5-1.4-1.1-1.8-1.9
				c-0.4-0.8-0.7-1.6-0.7-2.6c0-0.7,0.1-1.3,0.4-2c0.3-0.6,0.6-1.2,1.1-1.7c0.5-0.5,1-0.9,1.6-1.2C95.8,88.2,96.5,88.1,97.3,88.1z"
				/>
			<path class="st11" d="M111,88.1c1,0,1.8,0.2,2.6,0.7c0.8,0.5,1.4,1.1,1.9,1.9c0.5,0.8,0.7,1.7,0.7,2.6c0,1-0.2,1.9-0.7,2.6
				c-0.5,0.8-1.1,1.4-1.9,1.9c-0.8,0.5-1.7,0.7-2.6,0.7c-0.9,0-1.8-0.2-2.6-0.7c-0.8-0.5-1.4-1.1-1.9-1.9c-0.5-0.8-0.7-1.7-0.7-2.6
				c0-1,0.2-1.9,0.7-2.6c0.5-0.8,1.1-1.4,1.9-1.9C109.1,88.3,110,88.1,111,88.1z M111,90.5c-0.5,0-0.9,0.1-1.3,0.3
				c-0.4,0.2-0.7,0.5-1,1c-0.2,0.4-0.4,0.9-0.4,1.5s0.1,1.1,0.4,1.5c0.2,0.4,0.6,0.7,1,0.9c0.4,0.2,0.8,0.3,1.3,0.3s0.9-0.1,1.3-0.3
				c0.4-0.2,0.7-0.5,1-0.9c0.2-0.4,0.4-0.9,0.4-1.5s-0.1-1.1-0.4-1.5c-0.2-0.4-0.6-0.7-1-1C111.9,90.6,111.4,90.5,111,90.5z"/>
			<path class="st11" d="M125.8,85.5v2.9h2.7v2.1h-2.7v4.3c0,0.4,0.1,0.8,0.3,1c0.2,0.3,0.5,0.4,0.9,0.4c0.4,0,0.7,0,0.9-0.1
				c0.3-0.1,0.5-0.2,0.7-0.3v2c-0.2,0.2-0.6,0.5-0.9,0.6c-0.4,0.2-0.8,0.3-1.4,0.3c-0.9,0-1.6-0.3-2.2-0.8c-0.6-0.6-0.8-1.3-0.8-2.3
				v-4.9h-1.8v-1.3c0.6-0.2,1.2-0.6,1.7-1.2c0.5-0.6,0.9-1.4,1.3-2.4H125.8z"/>
			<path class="st11" d="M138.9,88.1c0.5,0,1.1,0.1,1.6,0.4s1,0.6,1.4,1v-1.1h2.5v9.9h-2.5v-1.7c-0.3,0.5-0.7,1-1.2,1.4
				c-0.5,0.4-1.2,0.6-1.9,0.6c-0.8,0-1.5-0.2-2.2-0.6c-0.7-0.4-1.2-1-1.6-1.8s-0.6-1.7-0.6-2.8c0-1.1,0.2-2,0.6-2.8
				c0.4-0.8,1-1.4,1.7-1.8C137.3,88.3,138.1,88.1,138.9,88.1z M139.4,90.5c-0.5,0-1,0.1-1.3,0.4c-0.4,0.3-0.7,0.6-0.9,1
				s-0.3,0.9-0.3,1.4c0,0.7,0.2,1.4,0.7,1.9c0.4,0.5,1,0.8,1.8,0.8c0.4,0,0.9-0.1,1.2-0.4c0.4-0.2,0.7-0.6,0.9-1
				c0.2-0.4,0.4-0.9,0.4-1.5v-1.4c-0.4-0.4-0.7-0.7-1.1-0.9S139.9,90.5,139.4,90.5z"/>
			<path class="st11" d="M170.6,84.2v14h-2.5v-1.7c-0.3,0.5-0.7,1-1.2,1.4c-0.5,0.4-1.2,0.6-1.9,0.6c-0.8,0-1.5-0.2-2.2-0.6
				c-0.7-0.4-1.2-1-1.6-1.8s-0.6-1.7-0.6-2.8c0-1.1,0.2-2,0.6-2.8c0.4-0.8,1-1.4,1.7-1.8c0.7-0.4,1.5-0.6,2.3-0.6
				c0.5,0,1.1,0.1,1.6,0.4s1,0.6,1.4,1v-5.3H170.6z M165.7,90.5c-0.5,0-1,0.1-1.3,0.4c-0.4,0.3-0.7,0.6-0.9,1
				c-0.2,0.4-0.3,0.9-0.3,1.4c0,0.7,0.2,1.4,0.7,1.9c0.4,0.5,1,0.8,1.8,0.8c0.4,0,0.9-0.1,1.2-0.4s0.7-0.6,0.9-1
				c0.2-0.4,0.4-0.9,0.4-1.5v-1.4c-0.4-0.4-0.7-0.7-1.1-0.9C166.6,90.6,166.2,90.5,165.7,90.5z"/>
			<path class="st11" d="M182.3,88.1c1,0,1.8,0.2,2.6,0.7c0.8,0.5,1.4,1.1,1.9,1.9c0.5,0.8,0.7,1.7,0.7,2.6c0,1-0.2,1.9-0.7,2.6
				c-0.5,0.8-1.1,1.4-1.9,1.9c-0.8,0.5-1.7,0.7-2.6,0.7c-0.9,0-1.8-0.2-2.6-0.7c-0.8-0.5-1.4-1.1-1.9-1.9c-0.5-0.8-0.7-1.7-0.7-2.6
				c0-1,0.2-1.9,0.7-2.6c0.5-0.8,1.1-1.4,1.9-1.9C180.4,88.3,181.3,88.1,182.3,88.1z M182.3,90.5c-0.5,0-0.9,0.1-1.3,0.3
				c-0.4,0.2-0.7,0.5-1,1c-0.2,0.4-0.4,0.9-0.4,1.5s0.1,1.1,0.4,1.5c0.2,0.4,0.6,0.7,1,0.9c0.4,0.2,0.8,0.3,1.3,0.3s0.9-0.1,1.3-0.3
				c0.4-0.2,0.7-0.5,1-0.9c0.2-0.4,0.4-0.9,0.4-1.5s-0.1-1.1-0.4-1.5c-0.2-0.4-0.6-0.7-1-1C183.2,90.6,182.7,90.5,182.3,90.5z"/>
			<path class="st11" d="M213.1,84.2v14h-2.5v-1.7c-0.3,0.5-0.7,1-1.2,1.4c-0.5,0.4-1.2,0.6-1.9,0.6c-0.8,0-1.5-0.2-2.2-0.6
				c-0.7-0.4-1.2-1-1.6-1.8c-0.4-0.8-0.6-1.7-0.6-2.8c0-1.1,0.2-2,0.6-2.8c0.4-0.8,1-1.4,1.7-1.8c0.7-0.4,1.5-0.6,2.3-0.6
				c0.5,0,1.1,0.1,1.6,0.4c0.5,0.2,1,0.6,1.4,1v-5.3H213.1z M208.2,90.5c-0.5,0-1,0.1-1.3,0.4c-0.4,0.3-0.7,0.6-0.9,1
				c-0.2,0.4-0.3,0.9-0.3,1.4c0,0.7,0.2,1.4,0.7,1.9c0.4,0.5,1,0.8,1.8,0.8c0.4,0,0.9-0.1,1.2-0.4c0.4-0.2,0.7-0.6,0.9-1
				c0.2-0.4,0.4-0.9,0.4-1.5v-1.4c-0.4-0.4-0.7-0.7-1.1-0.9C209.1,90.6,208.6,90.5,208.2,90.5z"/>
			<path class="st11" d="M223.7,88.3v9.9h-2.5v-7.7h-1.6v-2.1H223.7z M222.2,83.2c0.5,0,0.9,0.2,1.2,0.5c0.3,0.3,0.5,0.7,0.5,1.2
				c0,0.4-0.2,0.8-0.5,1.2c-0.3,0.3-0.7,0.5-1.2,0.5s-0.9-0.2-1.2-0.5c-0.3-0.3-0.5-0.7-0.5-1.2c0-0.5,0.2-0.8,0.5-1.2
				C221.3,83.4,221.7,83.2,222.2,83.2z"/>
			<path class="st11" d="M234.7,88.1c0.5,0,1.1,0.1,1.6,0.4c0.5,0.2,1,0.6,1.4,1v-1.1h2.5v9.9h-2.5v-1.7c-0.3,0.5-0.7,1-1.2,1.4
				c-0.5,0.4-1.2,0.6-1.9,0.6c-0.8,0-1.5-0.2-2.2-0.6c-0.7-0.4-1.2-1-1.6-1.8s-0.6-1.7-0.6-2.8c0-1.1,0.2-2,0.6-2.8
				c0.4-0.8,1-1.4,1.7-1.8C233.1,88.3,233.8,88.1,234.7,88.1z M235.2,90.5c-0.5,0-1,0.1-1.3,0.4c-0.4,0.3-0.7,0.6-0.9,1
				s-0.3,0.9-0.3,1.4c0,0.7,0.2,1.4,0.7,1.9c0.4,0.5,1,0.8,1.8,0.8c0.4,0,0.9-0.1,1.2-0.4s0.7-0.6,0.9-1c0.2-0.4,0.4-0.9,0.4-1.5
				v-1.4c-0.4-0.4-0.7-0.7-1.1-0.9C236.1,90.6,235.7,90.5,235.2,90.5z"/>
		</g>
	</g>
	<g class="st6">
		<path class="st10" d="M-22.2,21.6c2.8,0,5.2,0.4,7.3,1.2c2.1,0.8,3.8,1.8,5.4,3.2v9.4c-1.1-0.8-2.2-1.6-3.3-2.3
			c-1.2-0.8-2.5-1.4-3.9-1.9c-1.4-0.5-3.2-0.7-5.1-0.7c-2.7,0-5.1,0.6-7.3,1.9c-2.2,1.3-3.9,3-5.2,5.2c-1.3,2.2-1.9,4.7-1.9,7.5
			c0,2.8,0.6,5.3,1.9,7.5c1.3,2.2,3,3.9,5.2,5.2c2.2,1.3,4.6,1.9,7.3,1.9c3,0,5.5-0.5,7.5-1.4c2-0.9,3.9-2,5.5-3.4v9
			c-1.5,1.4-3.4,2.5-5.7,3.3c-2.3,0.8-4.8,1.2-7.6,1.2c-3.2,0-6.2-0.6-9.1-1.7c-2.9-1.1-5.4-2.7-7.6-4.8c-2.2-2.1-3.9-4.5-5.2-7.4
			c-1.2-2.9-1.9-6-1.9-9.5s0.6-6.6,1.9-9.5c1.2-2.9,3-5.3,5.2-7.4c2.2-2.1,4.7-3.7,7.6-4.8C-28.5,22.2-25.5,21.6-22.2,21.6z"/>
		<path class="st10" d="M21.9,32.8c3.3,0,6.3,0.8,9,2.4c2.7,1.6,4.9,3.7,6.6,6.4c1.7,2.7,2.5,5.7,2.5,9.1s-0.8,6.4-2.5,9
			c-1.7,2.7-3.9,4.8-6.6,6.4c-2.7,1.6-5.7,2.4-9,2.4c-3.3,0-6.3-0.8-9-2.4c-2.7-1.6-4.9-3.7-6.6-6.4c-1.7-2.7-2.5-5.7-2.5-9
			s0.8-6.4,2.5-9.1c1.6-2.7,3.8-4.8,6.6-6.4C15.6,33.5,18.6,32.8,21.9,32.8z M21.9,41c-1.6,0-3.1,0.4-4.5,1.1
			c-1.4,0.8-2.5,1.9-3.3,3.3c-0.8,1.4-1.2,3.2-1.2,5.2c0,2.1,0.4,3.8,1.2,5.2c0.8,1.4,1.9,2.5,3.3,3.2c1.4,0.7,2.9,1.1,4.5,1.1
			s3.1-0.4,4.5-1.1c1.4-0.7,2.5-1.8,3.3-3.2c0.8-1.4,1.3-3.2,1.3-5.2c0-2.1-0.4-3.8-1.3-5.2c-0.8-1.4-2-2.5-3.3-3.3
			C25,41.4,23.5,41,21.9,41z"/>
		<path class="st10" d="M65.8,23.8v9.8h9.4v7.1h-9.4v14.6c0,1.5,0.3,2.7,1,3.6c0.7,0.9,1.7,1.3,3.1,1.3c1.2,0,2.2-0.1,3.1-0.4
			s1.7-0.6,2.4-1.1v6.8c-0.8,0.8-1.9,1.6-3.2,2.1c-1.3,0.6-2.9,0.9-4.8,0.9c-3,0-5.5-1-7.4-2.9c-1.9-1.9-2.8-4.6-2.8-8V40.7h-6.1
			v-4.3c2.1-0.8,4.1-2.2,5.9-4.3c1.8-2.1,3.2-4.9,4.3-8.3H65.8z"/>
		<path class="st10" d="M104.1,32.8c1.8,0,3.7,0.4,5.6,1.3c1.9,0.8,3.4,2,4.7,3.4v-3.8h8.5v33.8h-8.5v-5.7c-1,1.8-2.4,3.4-4.3,4.7
			c-1.9,1.3-4.1,2-6.6,2c-2.7,0-5.2-0.7-7.5-2.1c-2.3-1.4-4.1-3.4-5.5-6c-1.4-2.6-2.1-5.8-2.1-9.6c0-3.7,0.7-7,2.1-9.6
			c1.4-2.7,3.3-4.7,5.7-6.2C98.5,33.5,101.2,32.8,104.1,32.8z M105.8,41.1c-1.8,0-3.3,0.5-4.6,1.4c-1.3,0.9-2.3,2.1-3,3.6
			c-0.7,1.5-1.1,3.1-1.1,4.7c0,2.5,0.8,4.7,2.3,6.5c1.5,1.8,3.6,2.7,6.1,2.7c1.5,0,2.9-0.4,4.2-1.2c1.3-0.8,2.4-1.9,3.2-3.4
			c0.8-1.4,1.2-3.2,1.2-5.3v-4.8c-1.2-1.3-2.5-2.3-3.9-3.1C109,41.4,107.4,41.1,105.8,41.1z"/>
		<path class="st10" d="M151,32.8c2.1,0,4,0.3,5.8,0.9c1.8,0.6,3.2,1.3,4.1,2.1v7.5c-1.1-0.7-2.4-1.4-3.9-2.1s-3.1-1-4.8-1
			c-1.6,0-2.9,0.4-3.8,1.1c-0.9,0.7-1.4,1.6-1.4,2.5c0,0.7,0.3,1.4,0.8,2s1.6,1.1,3.1,1.6l3.8,1.3c5.1,1.5,7.7,4.5,7.7,8.9
			c0,2.1-0.6,4-1.8,5.6c-1.2,1.6-2.8,2.9-4.7,3.8c-2,0.9-4.2,1.4-6.6,1.4c-2.3,0-4.5-0.4-6.6-1.1c-2.1-0.7-3.8-1.5-4.9-2.3v-7.4
			c0.8,0.6,1.9,1.1,3.1,1.7c1.2,0.5,2.5,1,3.7,1.3c1.3,0.3,2.5,0.5,3.5,0.5c1.7,0,3-0.3,3.9-0.9c0.9-0.6,1.4-1.5,1.4-2.6
			c0-0.8-0.4-1.5-1.1-2c-0.8-0.5-1.9-1-3.3-1.5l-4.1-1.5c-2.6-0.8-4.4-2.1-5.4-3.6c-1-1.6-1.5-3.4-1.5-5.6c0-2.1,0.5-4,1.6-5.6
			c1.1-1.6,2.6-2.8,4.6-3.7C146.2,33.2,148.4,32.8,151,32.8z"/>
		<path class="st10" d="M180.5,57.9c1.5,0,2.7,0.5,3.8,1.6c1,1,1.6,2.3,1.6,3.8s-0.5,2.7-1.6,3.8c-1,1-2.3,1.6-3.8,1.6
			s-2.7-0.5-3.8-1.6c-1-1-1.6-2.3-1.6-3.8s0.5-2.7,1.6-3.8C177.8,58.4,179,57.9,180.5,57.9z"/>
		<path class="st10" d="M217.5,32.8c3.3,0,6.3,0.8,9,2.4c2.7,1.6,4.9,3.7,6.6,6.4c1.7,2.7,2.5,5.7,2.5,9.1s-0.8,6.4-2.5,9
			s-3.9,4.8-6.6,6.4c-2.7,1.6-5.7,2.4-9,2.4c-3.3,0-6.3-0.8-9-2.4c-2.7-1.6-4.9-3.7-6.6-6.4c-1.7-2.7-2.5-5.7-2.5-9s0.8-6.4,2.5-9.1
			c1.6-2.7,3.8-4.8,6.6-6.4C211.3,33.5,214.3,32.8,217.5,32.8z M217.5,41c-1.6,0-3.1,0.4-4.5,1.1c-1.4,0.8-2.5,1.9-3.3,3.3
			c-0.8,1.4-1.2,3.2-1.2,5.2c0,2.1,0.4,3.8,1.2,5.2c0.8,1.4,1.9,2.5,3.3,3.2c1.4,0.7,2.9,1.1,4.5,1.1s3.1-0.4,4.5-1.1
			c1.4-0.7,2.5-1.8,3.3-3.2c0.8-1.4,1.3-3.2,1.3-5.2c0-2.1-0.4-3.8-1.3-5.2c-0.8-1.4-2-2.5-3.3-3.3C220.6,41.4,219.1,41,217.5,41z"
			/>
		<path class="st10" d="M271.8,43.1c-1.4-0.8-2.9-1.2-4.5-1.2c-2,0-3.6,0.6-4.9,1.9c-1.3,1.3-2.4,2.8-3.4,4.7v18.9h-8.5V33.6h8.5V40
			c1.2-2,2.5-3.7,4.1-5c1.6-1.3,3.4-2,5.4-2c1.2,0,2.3,0.2,3.3,0.6V43.1z"/>
		<path class="st10" d="M298.6,32.8c1.8,0,3.7,0.4,5.6,1.3c1.9,0.8,3.4,2,4.7,3.4v-3.8h8.5v32.9c0,3.8-0.8,7.1-2.5,9.7
			c-1.7,2.7-3.9,4.7-6.8,6.1s-5.9,2.1-9.2,2.1c-3,0-5.4-0.4-7.4-1.3c-1.9-0.9-3.7-1.9-5.4-3.1v-8c1,0.6,2.1,1.3,3.2,2
			c1.1,0.7,2.4,1.3,3.9,1.8c1.4,0.5,3.1,0.7,5.1,0.7c2,0,3.8-0.4,5.4-1.1c1.6-0.8,2.9-1.8,3.8-3.2c0.9-1.4,1.4-2.9,1.4-4.6v-5.9
			c-1,1.8-2.4,3.4-4.3,4.7c-1.9,1.3-4.1,2-6.6,2c-2.7,0-5.2-0.7-7.5-2.1c-2.3-1.4-4.1-3.4-5.5-6c-1.4-2.6-2.1-5.8-2.1-9.6
			c0-3.7,0.7-7,2.1-9.6c1.4-2.7,3.3-4.7,5.7-6.2C293,33.5,295.7,32.8,298.6,32.8z M300.3,41.1c-1.8,0-3.3,0.5-4.6,1.4
			c-1.3,0.9-2.3,2.1-3,3.5c-0.7,1.4-1.1,3-1.1,4.7c0,2.5,0.8,4.7,2.3,6.5c1.5,1.8,3.6,2.6,6.1,2.6c1.5,0,2.9-0.4,4.2-1.2
			c1.3-0.8,2.4-1.9,3.2-3.3c0.8-1.4,1.2-3.2,1.2-5.3v-4.8c-1.2-1.3-2.5-2.3-3.9-3S302,41.1,300.3,41.1z"/>
	</g>
</g>
</svg>
