<?xml version="1.0" encoding="utf-8"?>
<!-- Generator: Adobe Illustrator 23.0.1, SVG Export Plug-In . SVG Version: 6.00 Build 0)  -->
<svg version="1.1" id="Camada_1" xmlns="http://www.w3.org/2000/svg" xmlns:xlink="http://www.w3.org/1999/xlink" x="0px" y="0px"
	 viewBox="0 0 500 120.1" style="enable-background:new 0 0 500 120.1;" xml:space="preserve">
<style type="text/css">
	.st0{display:none;fill:#03151D;}
	.st1{display:none;fill:#EFEFEF;}
	.st2{font-family:'Sen-Bold';}
	.st3{font-size:47.1857px;}
	.st4{letter-spacing:4;}
	.st5{display:none;}
	.st6{display:inline;}
	.st7{fill:none;stroke:#EFEFEF;stroke-width:10;stroke-miterlimit:10;}
	.st8{display:inline;fill:none;stroke:#EFEFEF;stroke-width:10;stroke-miterlimit:10;}
	.st9{display:inline;fill:#EFEFEF;}
	.st10{fill:#EFEFEF;}
	.st11{fill:#A6A6A6;}
</style>
<rect x="-18" y="-207.9" class="st0" width="537.7" height="537.2"/>
<text transform="matrix(1 0 0 1 174.1526 73.6799)" class="st1 st2 st3 st4">Cotas</text>
<g class="st5">
	<g class="st6">
		<g>
			<g>
				<path class="st7" d="M61.1,0.8l27.7-27.7l27.5,27.7C101,16,76.3,16,61.1,0.8z"/>
			</g>
			<line class="st7" x1="88.8" y1="-26.9" x2="138" y2="-76.1"/>
		</g>
		<line class="st7" x1="116.6" y1="0.9" x2="59.8" y2="-55.9"/>
	</g>
	<circle class="st8" cx="88.8" cy="-26.9" r="68.5"/>
</g>
<path class="st1" d="M415.7-68.9l3.2-3.2l-3.7-3.7l-3.2,3.2c-6.8-5.9-15.6-9.5-25.2-9.5c-21.2,0-38.4,17.2-38.4,38.4
	s17.2,38.4,38.4,38.4c21.2,0,38.4-17.2,38.4-38.4C425.2-53.3,421.6-62.1,415.7-68.9z M386.8-10.5c-18.3,0-33.2-14.9-33.2-33.2
	s14.9-33.2,33.2-33.2c8.2,0,15.7,3,21.5,8l-21.5,21.5l-16-16l-3.7,3.7l16,16l-14.5,14.5l1.8,1.8c4.5,4.5,10.4,6.7,16.3,6.7
	c5.9,0,11.8-2.2,16.3-6.7l1.8-1.8l-1.7-1.7l0.1-0.1l-12.7-12.7L412-65.2c5,5.8,8,13.3,8,21.5C420-25.4,405.1-10.5,386.8-10.5z
	 M397.3-29.4c-6.3,4.6-14.9,4.7-21.2,0L386.8-40L397.3-29.4z"/>
<g class="st5">
	<path class="st9" d="M169.3,85.5c2.8,0,5.3,0.4,7.3,1.2c2.1,0.8,3.8,1.8,5.4,3.2v9.4c-1.1-0.8-2.2-1.6-3.4-2.3
		c-1.2-0.8-2.5-1.4-3.9-1.9c-1.5-0.5-3.2-0.7-5.1-0.7c-2.7,0-5.1,0.6-7.3,1.9c-2.2,1.3-3.9,3-5.2,5.2c-1.3,2.2-1.9,4.7-1.9,7.5
		c0,2.8,0.6,5.3,1.9,7.5c1.3,2.2,3,4,5.2,5.2c2.2,1.3,4.6,1.9,7.3,1.9c3,0,5.5-0.5,7.5-1.4c2-0.9,3.9-2,5.5-3.4v9.1
		c-1.5,1.4-3.4,2.5-5.7,3.3c-2.3,0.8-4.8,1.2-7.6,1.2c-3.2,0-6.3-0.6-9.1-1.7c-2.9-1.1-5.4-2.8-7.6-4.8c-2.2-2.1-3.9-4.5-5.2-7.4
		c-1.3-2.9-1.9-6-1.9-9.5c0-3.5,0.6-6.7,1.9-9.5c1.3-2.9,3-5.3,5.2-7.4c2.2-2.1,4.7-3.7,7.6-4.8S166,85.5,169.3,85.5z"/>
	<path class="st9" d="M213.5,96.7c3.3,0,6.3,0.8,9.1,2.4c2.7,1.6,4.9,3.7,6.6,6.4c1.7,2.7,2.5,5.7,2.5,9.1c0,3.4-0.8,6.4-2.5,9.1
		c-1.7,2.7-3.9,4.8-6.6,6.4c-2.7,1.6-5.7,2.4-9.1,2.4c-3.3,0-6.3-0.8-9-2.4c-2.8-1.6-5-3.7-6.6-6.4c-1.7-2.7-2.5-5.7-2.5-9.1
		c0-3.4,0.8-6.4,2.5-9.1c1.7-2.7,3.9-4.9,6.6-6.4C207.2,97.5,210.2,96.7,213.5,96.7z M213.5,104.9c-1.6,0-3.1,0.4-4.5,1.1
		c-1.4,0.8-2.5,1.9-3.3,3.3c-0.8,1.4-1.2,3.2-1.2,5.2c0,2.1,0.4,3.8,1.2,5.2s1.9,2.5,3.3,3.3c1.4,0.7,2.9,1.1,4.5,1.1
		c1.6,0,3.1-0.4,4.5-1.1c1.4-0.7,2.5-1.8,3.4-3.3c0.8-1.4,1.3-3.2,1.3-5.2c0-2.1-0.4-3.8-1.3-5.2c-0.9-1.4-2-2.5-3.4-3.3
		C216.6,105.3,215.1,104.9,213.5,104.9z"/>
	<path class="st9" d="M257.5,87.7v9.9h9.4v7.1h-9.4v14.6c0,1.5,0.3,2.7,1,3.6c0.7,0.9,1.7,1.3,3.1,1.3c1.2,0,2.2-0.1,3.1-0.4
		c0.9-0.3,1.7-0.6,2.4-1.1v6.8c-0.9,0.9-1.9,1.6-3.2,2.1c-1.3,0.6-2.9,0.9-4.8,0.9c-3,0-5.5-1-7.4-2.9c-1.9-1.9-2.9-4.6-2.9-8v-16.8
		h-6.1v-4.4c2.1-0.8,4.1-2.2,5.9-4.3c1.8-2.1,3.3-4.9,4.3-8.3H257.5z"/>
	<path class="st9" d="M296,96.7c1.8,0,3.7,0.4,5.6,1.3c1.9,0.9,3.4,2,4.7,3.4v-3.8h8.5v33.9h-8.5v-5.7c-1,1.8-2.4,3.4-4.3,4.7
		c-1.9,1.3-4.1,2-6.6,2c-2.7,0-5.2-0.7-7.5-2.1c-2.3-1.4-4.2-3.4-5.5-6c-1.4-2.6-2.1-5.8-2.1-9.6c0-3.8,0.7-7,2.1-9.7
		c1.4-2.7,3.3-4.8,5.7-6.2C290.4,97.4,293,96.7,296,96.7z M297.7,105c-1.8,0-3.3,0.5-4.6,1.4c-1.3,0.9-2.3,2.1-3,3.6
		c-0.7,1.5-1.1,3.1-1.1,4.8c0,2.5,0.8,4.7,2.3,6.5c1.5,1.8,3.6,2.7,6.1,2.7c1.5,0,2.9-0.4,4.3-1.2c1.3-0.8,2.4-1.9,3.2-3.4
		c0.8-1.5,1.2-3.2,1.2-5.3v-4.8c-1.2-1.3-2.5-2.3-3.9-3.1C300.9,105.4,299.3,105,297.7,105z"/>
	<path class="st9" d="M343,96.7c2.1,0,4,0.3,5.8,0.9c1.8,0.6,3.2,1.3,4.2,2.1v7.5c-1.1-0.7-2.4-1.4-3.9-2.1c-1.5-0.7-3.1-1-4.8-1
		c-1.6,0-2.9,0.4-3.8,1.1c-0.9,0.7-1.4,1.6-1.4,2.5c0,0.7,0.3,1.4,0.8,2c0.5,0.6,1.6,1.1,3.1,1.6l3.8,1.3c5.1,1.5,7.7,4.5,7.7,8.9
		c0,2.1-0.6,4-1.8,5.6c-1.2,1.6-2.8,2.9-4.8,3.9c-2,0.9-4.2,1.4-6.6,1.4c-2.3,0-4.5-0.4-6.6-1.1c-2.1-0.7-3.8-1.5-4.9-2.3v-7.4
		c0.8,0.6,1.9,1.1,3.1,1.7c1.2,0.5,2.5,1,3.8,1.3c1.3,0.3,2.5,0.5,3.6,0.5c1.7,0,3-0.3,3.9-0.9c0.9-0.6,1.4-1.5,1.4-2.6
		c0-0.8-0.4-1.5-1.1-2c-0.8-0.5-1.9-1-3.4-1.5l-4.2-1.5c-2.6-0.8-4.4-2.1-5.4-3.6c-1-1.6-1.5-3.4-1.5-5.6s0.5-4,1.6-5.6
		c1.1-1.6,2.6-2.8,4.6-3.8C338.2,97.2,340.5,96.7,343,96.7z"/>
</g>
<g>
	<path class="st10" d="M53.2,6.9C23.9,6.9,0,30.7,0,60s23.9,53.2,53.2,53.2s53.2-23.9,53.2-53.2S82.5,6.9,53.2,6.9z M53.2,106
		C27.8,106,7.2,85.4,7.2,60s20.6-45.9,45.9-45.9c11.4,0,21.8,4.2,29.8,11L53.2,54.9L34.8,36.5l-5.1,5.1L48.1,60l-20,20l2.6,2.6
		c6.2,6.2,14.4,9.3,22.5,9.3s16.3-3.1,22.5-9.3l2.5-2.5l-2.4-2.4l0.1-0.1L58.3,60l29.8-29.8c6.9,8,11,18.4,11,29.8
		C99.1,85.4,78.5,106,53.2,106z M67.8,79.9c-8.7,6.4-20.6,6.4-29.3,0l14.7-14.7L67.8,79.9z"/>
</g>
<g>
	<g>
		<path class="st11" d="M171.7,93.5c0.8,0,1.4,0.1,2.1,0.3c0.6,0.2,1.2,0.4,1.6,0.7v2.7c-0.5-0.3-1-0.6-1.5-0.8s-1.1-0.4-1.8-0.4
			c-0.3,0-0.7,0.1-1,0.2s-0.6,0.3-0.8,0.5s-0.3,0.5-0.3,0.8c0,0.4,0.2,0.8,0.6,1c0.4,0.2,0.8,0.4,1.4,0.7l1.6,0.7
			c0.9,0.4,1.6,0.9,2,1.4c0.4,0.6,0.6,1.2,0.6,1.9c0,0.8-0.2,1.5-0.7,2.1c-0.4,0.6-1,1.1-1.8,1.4c-0.7,0.3-1.6,0.5-2.5,0.5
			c-0.8,0-1.5-0.1-2.2-0.4c-0.7-0.3-1.3-0.6-1.8-1v-2.7c0.6,0.4,1.2,0.8,1.9,1.1c0.7,0.3,1.4,0.4,2.2,0.4c0.5,0,1-0.1,1.4-0.3
			c0.4-0.2,0.6-0.5,0.6-1c0-0.3-0.2-0.6-0.5-0.8c-0.3-0.2-0.7-0.4-1-0.5l-2-0.8c-1-0.4-1.7-0.9-2.1-1.5s-0.5-1.3-0.5-2.1
			c0-0.8,0.2-1.5,0.7-2.1s1-1.1,1.7-1.4C170.1,93.7,170.8,93.5,171.7,93.5z"/>
		<path class="st11" d="M191,97v5.9c0,0.9-0.2,1.6-0.6,2.3c-0.4,0.6-0.9,1.1-1.6,1.5c-0.7,0.3-1.4,0.5-2.3,0.5
			c-0.9,0-1.6-0.2-2.3-0.5s-1.2-0.8-1.6-1.5s-0.6-1.4-0.6-2.3V97h2.5l0,5.4c0,0.8,0.2,1.3,0.5,1.7c0.4,0.4,0.8,0.6,1.4,0.6
			c0.6,0,1-0.2,1.4-0.6c0.4-0.4,0.5-0.9,0.5-1.7V97H191z"/>
		<path class="st11" d="M201.8,96.8c0.5,0,1.1,0.1,1.6,0.4c0.5,0.2,1,0.6,1.4,1V97h2.5v9.9h-2.5v-1.7c-0.3,0.5-0.7,1-1.2,1.4
			c-0.5,0.4-1.2,0.6-1.9,0.6c-0.8,0-1.5-0.2-2.2-0.6c-0.7-0.4-1.2-1-1.6-1.8c-0.4-0.8-0.6-1.7-0.6-2.8c0-1.1,0.2-2,0.6-2.8
			c0.4-0.8,1-1.4,1.7-1.8C200.2,97,200.9,96.8,201.8,96.8z M202.3,99.2c-0.5,0-1,0.1-1.3,0.4c-0.4,0.3-0.7,0.6-0.9,1
			c-0.2,0.4-0.3,0.9-0.3,1.4c0,0.7,0.2,1.4,0.7,1.9c0.4,0.5,1,0.8,1.8,0.8c0.4,0,0.9-0.1,1.2-0.4s0.7-0.6,0.9-1s0.4-0.9,0.4-1.5
			v-1.4c-0.4-0.4-0.7-0.7-1.1-0.9S202.8,99.2,202.3,99.2z"/>
		<path class="st11" d="M228.6,96.8c0.7,0,1.3,0.1,1.8,0.4s0.8,0.5,1.1,0.7v2.3c-0.3-0.2-0.7-0.5-1.1-0.6c-0.4-0.2-0.9-0.3-1.6-0.3
			c-0.5,0-1,0.1-1.4,0.4c-0.4,0.2-0.8,0.6-1,1c-0.2,0.4-0.4,0.9-0.4,1.4c0,0.8,0.3,1.5,0.8,2c0.5,0.5,1.2,0.8,2,0.8
			c0.6,0,1.1-0.1,1.6-0.2c0.4-0.2,0.8-0.4,1.1-0.6v2.3c-0.3,0.2-0.6,0.5-1.1,0.7c-0.5,0.2-1.1,0.3-1.8,0.3c-1,0-1.9-0.2-2.7-0.7
			c-0.8-0.5-1.4-1.1-1.8-1.9c-0.4-0.8-0.7-1.6-0.7-2.6c0-0.7,0.1-1.3,0.4-2c0.3-0.6,0.6-1.2,1.1-1.7c0.5-0.5,1-0.9,1.6-1.2
			C227.2,96.9,227.9,96.8,228.6,96.8z"/>
		<path class="st11" d="M242.3,96.8c1,0,1.8,0.2,2.6,0.7c0.8,0.5,1.4,1.1,1.9,1.9c0.5,0.8,0.7,1.7,0.7,2.6c0,1-0.2,1.9-0.7,2.6
			c-0.5,0.8-1.1,1.4-1.9,1.9c-0.8,0.5-1.7,0.7-2.6,0.7c-0.9,0-1.8-0.2-2.6-0.7c-0.8-0.5-1.4-1.1-1.9-1.9c-0.5-0.8-0.7-1.7-0.7-2.6
			c0-1,0.2-1.9,0.7-2.6c0.5-0.8,1.1-1.4,1.9-1.9C240.5,97,241.4,96.8,242.3,96.8z M242.3,99.2c-0.5,0-0.9,0.1-1.3,0.3
			c-0.4,0.2-0.7,0.5-1,1c-0.2,0.4-0.4,0.9-0.4,1.5c0,0.6,0.1,1.1,0.4,1.5c0.2,0.4,0.6,0.7,1,0.9c0.4,0.2,0.8,0.3,1.3,0.3
			s0.9-0.1,1.3-0.3c0.4-0.2,0.7-0.5,1-0.9c0.2-0.4,0.4-0.9,0.4-1.5c0-0.6-0.1-1.1-0.4-1.5c-0.2-0.4-0.6-0.7-1-1
			C243.2,99.3,242.8,99.2,242.3,99.2z"/>
		<path class="st11" d="M257.1,94.2V97h2.7v2.1h-2.7v4.3c0,0.4,0.1,0.8,0.3,1c0.2,0.3,0.5,0.4,0.9,0.4c0.4,0,0.7,0,0.9-0.1
			c0.3-0.1,0.5-0.2,0.7-0.3v2c-0.2,0.2-0.6,0.5-0.9,0.6c-0.4,0.2-0.8,0.3-1.4,0.3c-0.9,0-1.6-0.3-2.2-0.8c-0.6-0.6-0.8-1.3-0.8-2.3
			v-4.9h-1.8v-1.3c0.6-0.2,1.2-0.6,1.7-1.2s0.9-1.4,1.3-2.4H257.1z"/>
		<path class="st11" d="M270.3,96.8c0.5,0,1.1,0.1,1.6,0.4c0.5,0.2,1,0.6,1.4,1V97h2.5v9.9h-2.5v-1.7c-0.3,0.5-0.7,1-1.2,1.4
			c-0.5,0.4-1.2,0.6-1.9,0.6c-0.8,0-1.5-0.2-2.2-0.6c-0.7-0.4-1.2-1-1.6-1.8c-0.4-0.8-0.6-1.7-0.6-2.8c0-1.1,0.2-2,0.6-2.8
			c0.4-0.8,1-1.4,1.7-1.8C268.7,97,269.4,96.8,270.3,96.8z M270.8,99.2c-0.5,0-1,0.1-1.3,0.4c-0.4,0.3-0.7,0.6-0.9,1
			c-0.2,0.4-0.3,0.9-0.3,1.4c0,0.7,0.2,1.4,0.7,1.9c0.4,0.5,1,0.8,1.8,0.8c0.4,0,0.9-0.1,1.2-0.4c0.4-0.2,0.7-0.6,0.9-1
			c0.2-0.4,0.4-0.9,0.4-1.5v-1.4c-0.4-0.4-0.7-0.7-1.1-0.9S271.3,99.2,270.8,99.2z"/>
		<path class="st11" d="M302,92.8v14h-2.5v-1.7c-0.3,0.5-0.7,1-1.2,1.4c-0.5,0.4-1.2,0.6-1.9,0.6c-0.8,0-1.5-0.2-2.2-0.6
			c-0.7-0.4-1.2-1-1.6-1.8c-0.4-0.8-0.6-1.7-0.6-2.8c0-1.1,0.2-2,0.6-2.8c0.4-0.8,1-1.4,1.7-1.8c0.7-0.4,1.5-0.6,2.3-0.6
			c0.5,0,1.1,0.1,1.6,0.4c0.5,0.2,1,0.6,1.4,1v-5.3H302z M297,99.2c-0.5,0-1,0.1-1.3,0.4c-0.4,0.3-0.7,0.6-0.9,1
			c-0.2,0.4-0.3,0.9-0.3,1.4c0,0.7,0.2,1.4,0.7,1.9c0.4,0.5,1,0.8,1.8,0.8c0.4,0,0.9-0.1,1.2-0.4c0.4-0.2,0.7-0.6,0.9-1
			s0.4-0.9,0.4-1.5v-1.4c-0.4-0.4-0.7-0.7-1.1-0.9C298,99.3,297.5,99.2,297,99.2z"/>
		<path class="st11" d="M313.6,96.8c1,0,1.8,0.2,2.6,0.7c0.8,0.5,1.4,1.1,1.9,1.9c0.5,0.8,0.7,1.7,0.7,2.6c0,1-0.2,1.9-0.7,2.6
			c-0.5,0.8-1.1,1.4-1.9,1.9c-0.8,0.5-1.7,0.7-2.6,0.7c-0.9,0-1.8-0.2-2.6-0.7c-0.8-0.5-1.4-1.1-1.9-1.9s-0.7-1.7-0.7-2.6
			c0-1,0.2-1.9,0.7-2.6s1.1-1.4,1.9-1.9C311.8,97,312.7,96.8,313.6,96.8z M313.6,99.2c-0.5,0-0.9,0.1-1.3,0.3c-0.4,0.2-0.7,0.5-1,1
			c-0.2,0.4-0.4,0.9-0.4,1.5c0,0.6,0.1,1.1,0.4,1.5c0.2,0.4,0.6,0.7,1,0.9c0.4,0.2,0.8,0.3,1.3,0.3s0.9-0.1,1.3-0.3
			c0.4-0.2,0.7-0.5,1-0.9c0.2-0.4,0.4-0.9,0.4-1.5c0-0.6-0.1-1.1-0.4-1.5c-0.2-0.4-0.6-0.7-1-1C314.5,99.3,314.1,99.2,313.6,99.2z"
			/>
		<path class="st11" d="M344.5,92.8v14H342v-1.7c-0.3,0.5-0.7,1-1.2,1.4c-0.5,0.4-1.2,0.6-1.9,0.6c-0.8,0-1.5-0.2-2.2-0.6
			c-0.7-0.4-1.2-1-1.6-1.8c-0.4-0.8-0.6-1.7-0.6-2.8c0-1.1,0.2-2,0.6-2.8c0.4-0.8,1-1.4,1.7-1.8c0.7-0.4,1.5-0.6,2.3-0.6
			c0.5,0,1.1,0.1,1.6,0.4c0.5,0.2,1,0.6,1.4,1v-5.3H344.5z M339.5,99.2c-0.5,0-1,0.1-1.3,0.4c-0.4,0.3-0.7,0.6-0.9,1
			c-0.2,0.4-0.3,0.9-0.3,1.4c0,0.7,0.2,1.4,0.7,1.9c0.4,0.5,1,0.8,1.8,0.8c0.4,0,0.9-0.1,1.2-0.4s0.7-0.6,0.9-1s0.4-0.9,0.4-1.5
			v-1.4c-0.4-0.4-0.7-0.7-1.1-0.9C340.4,99.3,340,99.2,339.5,99.2z"/>
		<path class="st11" d="M355,97v9.9h-2.5v-7.7h-1.6V97H355z M353.6,91.9c0.5,0,0.9,0.2,1.2,0.5c0.3,0.3,0.5,0.7,0.5,1.2
			c0,0.4-0.2,0.8-0.5,1.2s-0.7,0.5-1.2,0.5s-0.9-0.2-1.2-0.5c-0.3-0.3-0.5-0.7-0.5-1.2c0-0.5,0.2-0.8,0.5-1.2
			C352.7,92.1,353.1,91.9,353.6,91.9z"/>
		<path class="st11" d="M366,96.8c0.5,0,1.1,0.1,1.6,0.4c0.5,0.2,1,0.6,1.4,1V97h2.5v9.9H369v-1.7c-0.3,0.5-0.7,1-1.2,1.4
			c-0.5,0.4-1.2,0.6-1.9,0.6c-0.8,0-1.5-0.2-2.2-0.6c-0.7-0.4-1.2-1-1.6-1.8c-0.4-0.8-0.6-1.7-0.6-2.8c0-1.1,0.2-2,0.6-2.8
			c0.4-0.8,1-1.4,1.7-1.8C364.4,97,365.2,96.8,366,96.8z M366.5,99.2c-0.5,0-1,0.1-1.3,0.4c-0.4,0.3-0.7,0.6-0.9,1
			c-0.2,0.4-0.3,0.9-0.3,1.4c0,0.7,0.2,1.4,0.7,1.9c0.4,0.5,1,0.8,1.8,0.8c0.4,0,0.9-0.1,1.2-0.4c0.4-0.2,0.7-0.6,0.9-1
			s0.4-0.9,0.4-1.5v-1.4c-0.4-0.4-0.7-0.7-1.1-0.9C367.5,99.3,367,99.2,366.5,99.2z"/>
	</g>
</g>
<g>
	<path class="st10" d="M160.4,28.6c2.8,0,5.2,0.4,7.3,1.2c2.1,0.8,3.8,1.8,5.4,3.2v9.4c-1.1-0.8-2.2-1.6-3.3-2.3
		c-1.2-0.8-2.5-1.4-3.9-1.9c-1.4-0.5-3.2-0.7-5.1-0.7c-2.7,0-5.1,0.6-7.3,1.9c-2.2,1.3-3.9,3-5.2,5.2c-1.3,2.2-1.9,4.7-1.9,7.5
		c0,2.8,0.6,5.3,1.9,7.5c1.3,2.2,3,3.9,5.2,5.2c2.2,1.3,4.6,1.9,7.3,1.9c3,0,5.5-0.5,7.5-1.4c2-0.9,3.9-2,5.5-3.4v9
		c-1.5,1.4-3.4,2.5-5.7,3.3c-2.3,0.8-4.8,1.2-7.6,1.2c-3.2,0-6.2-0.6-9.1-1.7c-2.9-1.1-5.4-2.7-7.6-4.8c-2.2-2.1-3.9-4.5-5.2-7.4
		c-1.2-2.9-1.9-6-1.9-9.5s0.6-6.6,1.9-9.5c1.2-2.9,3-5.3,5.2-7.4c2.2-2.1,4.7-3.7,7.6-4.8C154.2,29.2,157.2,28.6,160.4,28.6z"/>
	<path class="st10" d="M204.5,39.8c3.3,0,6.3,0.8,9,2.4c2.7,1.6,4.9,3.7,6.6,6.4c1.7,2.7,2.5,5.7,2.5,9.1s-0.8,6.4-2.5,9
		c-1.7,2.7-3.9,4.8-6.6,6.4c-2.7,1.6-5.7,2.4-9,2.4c-3.3,0-6.3-0.8-9-2.4c-2.7-1.6-4.9-3.7-6.6-6.4c-1.7-2.7-2.5-5.7-2.5-9
		s0.8-6.4,2.5-9.1c1.6-2.7,3.8-4.8,6.6-6.4C198.3,40.6,201.3,39.8,204.5,39.8z M204.5,48c-1.6,0-3.1,0.4-4.5,1.1
		c-1.4,0.8-2.5,1.9-3.3,3.3c-0.8,1.4-1.2,3.2-1.2,5.2c0,2.1,0.4,3.8,1.2,5.2c0.8,1.4,1.9,2.5,3.3,3.2c1.4,0.7,2.9,1.1,4.5,1.1
		s3.1-0.4,4.5-1.1c1.4-0.7,2.5-1.8,3.3-3.2c0.8-1.4,1.3-3.2,1.3-5.2c0-2.1-0.4-3.8-1.3-5.2c-0.8-1.4-2-2.5-3.3-3.3
		C207.6,48.4,206.1,48,204.5,48z"/>
	<path class="st10" d="M248.4,30.8v9.8h9.4v7.1h-9.4v14.6c0,1.5,0.3,2.7,1,3.6c0.7,0.9,1.7,1.3,3.1,1.3c1.2,0,2.2-0.1,3.1-0.4
		s1.7-0.6,2.4-1.1v6.8c-0.8,0.8-1.9,1.6-3.2,2.1c-1.3,0.6-2.9,0.9-4.8,0.9c-3,0-5.5-1-7.4-2.9c-1.9-1.9-2.8-4.6-2.8-8V47.7h-6.1
		v-4.3c2.1-0.8,4.1-2.2,5.9-4.3c1.8-2.1,3.2-4.9,4.3-8.3H248.4z"/>
	<path class="st10" d="M286.7,39.8c1.8,0,3.7,0.4,5.6,1.3c1.9,0.8,3.4,2,4.7,3.4v-3.8h8.5v33.8H297v-5.7c-1,1.8-2.4,3.4-4.3,4.7
		s-4.1,2-6.6,2c-2.7,0-5.2-0.7-7.5-2.1c-2.3-1.4-4.1-3.4-5.5-6c-1.4-2.6-2.1-5.8-2.1-9.6s0.7-7,2.1-9.6s3.3-4.7,5.7-6.2
		C281.2,40.5,283.8,39.8,286.7,39.8z M288.5,48.1c-1.8,0-3.3,0.5-4.6,1.4c-1.3,0.9-2.3,2.1-3,3.6c-0.7,1.5-1.1,3.1-1.1,4.7
		c0,2.5,0.8,4.7,2.3,6.5c1.5,1.8,3.6,2.7,6.1,2.7c1.5,0,2.9-0.4,4.2-1.2c1.3-0.8,2.4-1.9,3.2-3.4c0.8-1.4,1.2-3.2,1.2-5.3v-4.8
		c-1.2-1.3-2.5-2.3-3.9-3.1C291.7,48.4,290.1,48.1,288.5,48.1z"/>
	<path class="st10" d="M333.7,39.8c2.1,0,4,0.3,5.8,0.9c1.8,0.6,3.2,1.3,4.1,2.1v7.5c-1.1-0.7-2.4-1.4-3.9-2.1s-3.1-1-4.8-1
		c-1.6,0-2.9,0.4-3.8,1.1c-0.9,0.7-1.4,1.6-1.4,2.5c0,0.7,0.3,1.4,0.8,2s1.6,1.1,3.1,1.6l3.8,1.3c5.1,1.5,7.7,4.5,7.7,8.9
		c0,2.1-0.6,4-1.8,5.6c-1.2,1.6-2.8,2.9-4.7,3.8c-2,0.9-4.2,1.4-6.6,1.4c-2.3,0-4.5-0.4-6.6-1.1c-2.1-0.7-3.8-1.5-4.9-2.3v-7.4
		c0.8,0.6,1.9,1.1,3.1,1.7c1.2,0.5,2.5,1,3.7,1.3c1.3,0.3,2.5,0.5,3.5,0.5c1.7,0,3-0.3,3.9-0.9c0.9-0.6,1.4-1.5,1.4-2.6
		c0-0.8-0.4-1.5-1.1-2c-0.8-0.5-1.9-1-3.3-1.5l-4.1-1.5c-2.6-0.8-4.4-2.1-5.4-3.6c-1-1.6-1.5-3.4-1.5-5.6c0-2.1,0.5-4,1.6-5.6
		c1.1-1.6,2.6-2.8,4.6-3.7C328.9,40.2,331.1,39.8,333.7,39.8z"/>
	<path class="st10" d="M363.2,64.9c1.5,0,2.7,0.5,3.8,1.6c1,1,1.6,2.3,1.6,3.8c0,1.5-0.5,2.7-1.6,3.8c-1,1-2.3,1.6-3.8,1.6
		s-2.7-0.5-3.8-1.6c-1-1-1.6-2.3-1.6-3.8c0-1.5,0.5-2.7,1.6-3.8C360.5,65.4,361.7,64.9,363.2,64.9z"/>
	<path class="st10" d="M400.2,39.8c3.3,0,6.3,0.8,9,2.4c2.7,1.6,4.9,3.7,6.6,6.4c1.7,2.7,2.5,5.7,2.5,9.1s-0.8,6.4-2.5,9
		c-1.7,2.7-3.9,4.8-6.6,6.4c-2.7,1.6-5.7,2.4-9,2.4c-3.3,0-6.3-0.8-9-2.4c-2.7-1.6-4.9-3.7-6.6-6.4c-1.7-2.7-2.5-5.7-2.5-9
		s0.8-6.4,2.5-9.1c1.6-2.7,3.8-4.8,6.6-6.4C394,40.6,397,39.8,400.2,39.8z M400.2,48c-1.6,0-3.1,0.4-4.5,1.1
		c-1.4,0.8-2.5,1.9-3.3,3.3c-0.8,1.4-1.2,3.2-1.2,5.2c0,2.1,0.4,3.8,1.2,5.2c0.8,1.4,1.9,2.5,3.3,3.2c1.4,0.7,2.9,1.1,4.5,1.1
		s3.1-0.4,4.5-1.1c1.4-0.7,2.5-1.8,3.3-3.2c0.8-1.4,1.3-3.2,1.3-5.2c0-2.1-0.4-3.8-1.3-5.2c-0.8-1.4-2-2.5-3.3-3.3
		C403.3,48.4,401.8,48,400.2,48z"/>
	<path class="st10" d="M454.5,50.1c-1.4-0.8-2.9-1.2-4.5-1.2c-2,0-3.6,0.6-4.9,1.9c-1.3,1.3-2.4,2.8-3.4,4.7v18.9h-8.5V40.6h8.5V47
		c1.2-2,2.5-3.7,4.1-5c1.6-1.3,3.4-2,5.4-2c1.2,0,2.3,0.2,3.3,0.6V50.1z"/>
	<path class="st10" d="M481.3,39.8c1.8,0,3.7,0.4,5.6,1.3c1.9,0.8,3.4,2,4.7,3.4v-3.8h8.5v32.9c0,3.8-0.8,7.1-2.5,9.7
		c-1.7,2.7-3.9,4.7-6.8,6.1c-2.8,1.4-5.9,2.1-9.2,2.1c-3,0-5.4-0.4-7.4-1.3c-1.9-0.9-3.7-1.9-5.4-3.1v-8c1,0.6,2.1,1.3,3.2,2
		c1.1,0.7,2.4,1.3,3.9,1.8c1.4,0.5,3.1,0.7,5.1,0.7c2,0,3.8-0.4,5.4-1.1c1.6-0.8,2.9-1.8,3.8-3.2c0.9-1.4,1.4-2.9,1.4-4.6v-5.9
		c-1,1.8-2.4,3.4-4.3,4.7c-1.9,1.3-4.1,2-6.6,2c-2.7,0-5.2-0.7-7.5-2.1c-2.3-1.4-4.1-3.4-5.5-6c-1.4-2.6-2.1-5.8-2.1-9.6
		s0.7-7,2.1-9.6s3.3-4.7,5.7-6.2C475.7,40.5,478.4,39.8,481.3,39.8z M483,48.1c-1.8,0-3.3,0.5-4.6,1.4c-1.3,0.9-2.3,2.1-3,3.5
		c-0.7,1.4-1.1,3-1.1,4.7c0,2.5,0.8,4.7,2.3,6.5c1.5,1.8,3.6,2.6,6.1,2.6c1.5,0,2.9-0.4,4.2-1.2c1.3-0.8,2.4-1.9,3.2-3.3
		c0.8-1.4,1.2-3.2,1.2-5.3v-4.8c-1.2-1.3-2.5-2.3-3.9-3S484.7,48.1,483,48.1z"/>
</g>
</svg>
